# Blender v2.92.0 OBJ File: 'Body.blend'
# www.blender.org
mtllib Body.mtl
g Body
v 0.316759 0.516666 0.849955
v 0.316759 1.016666 0.699987
v 0.316759 0.516666 1.199987
v 0.316759 1.016666 1.199987
v -0.183241 0.516666 0.849955
v -0.183241 1.016666 0.699987
v -0.183241 0.516666 1.199987
v -0.183241 1.016666 1.199987
v -0.433208 1.016666 0.499960
v -0.283241 1.716666 0.349987
v -0.433208 1.016666 -0.500053
v -0.283241 1.716666 -0.350013
v 0.566799 1.016666 0.499960
v 0.416759 1.716666 0.349987
v 0.566799 1.016666 -0.500053
v 0.416759 1.716666 -0.350013
v 1.261822 1.366666 -0.000029
v -1.933218 1.516667 0.549951
v -1.933218 1.516667 -0.550021
v 2.066765 0.816640 0.400041
v 2.066765 0.816640 -0.400025
v -2.433241 0.016666 0.999987
v -2.433241 0.016666 -1.000013
v 2.566759 0.016666 -0.500050
v 2.566759 0.016666 0.499975
v 1.066762 1.016666 -0.699988
v 1.316759 -0.983334 0.499961
v 1.316759 0.016666 -1.000013
v 1.316759 -0.983334 -0.499710
v 1.066762 1.016666 0.700004
v 1.316759 0.016666 0.999987
v -1.433211 -0.983334 -0.499710
v -1.183241 1.516667 0.549951
v -1.183241 0.016666 0.999987
v -1.183241 1.516667 -0.550021
v -1.433231 -0.983334 0.499961
v -1.183241 0.016666 -1.000013
v -0.533246 -0.983334 -0.499710
v -0.533246 1.016707 0.700004
v -0.533246 0.016666 -1.000013
v -0.533246 0.016666 0.999987
v -0.533246 -0.983334 0.499961
v -0.533246 1.016707 -0.699988
v -0.183241 0.516666 -0.849981
v -0.183241 1.016666 -0.700013
v -0.183241 0.516666 -1.200013
v -0.183241 1.016666 -1.200013
v 0.316759 0.516666 -0.849981
v 0.316759 1.016666 -0.700013
v 0.316759 0.516666 -1.200013
v 0.316759 1.016666 -1.200013
vt 0.396665 0.932849
vt 0.462692 0.912996
vt 0.462692 0.979187
vt 0.396665 0.979187
vt 0.754996 0.846654
vt 0.821172 0.846632
vt 0.821172 0.912814
vt 0.754996 0.912836
vt 0.991651 0.132382
vt 0.925838 0.132382
vt 0.925838 0.066191
vt 0.991651 0.086044
vt 0.925838 0.198511
vt 0.925838 0.132382
vt 0.972175 0.132382
vt 0.972175 0.198512
vt 0.821125 0.979027
vt 0.754996 0.979027
vt 0.754996 0.912836
vt 0.821125 0.912836
vt 0.936045 0.775054
vt 0.889709 0.661299
vt 0.843378 0.775054
vt 0.843377 1.000000
vt 0.843377 0.867635
vt 0.935615 0.887136
vt 0.935615 0.979790
vt 0.843378 0.867636
vt 0.936045 0.867636
vt 0.535035 0.739150
vt 0.535035 0.871515
vt 0.628092 0.851961
vt 0.628092 0.759307
vt 0.582726 0.648233
vt 0.000000 0.992421
vt 0.093832 0.972568
vt 0.093832 0.879900
vt 0.000000 0.860038
vt 0.626810 0.871514
vt 0.535035 0.948483
vt 0.626810 0.974124
vt 0.661075 0.912827
vt 0.754996 0.979015
vt 0.754996 0.846632
vt 0.330536 0.648233
vt 0.535035 0.707809
vt 0.535035 0.853425
vt 0.330536 0.912996
vt 0.207625 0.485116
vt 0.329210 0.425816
vt 0.330536 0.561724
vt 0.241301 0.648421
vt 0.185333 0.833754
vt 0.286329 0.846995
vt 0.286329 0.952909
vt 0.185333 0.966139
vt 0.468008 0.486514
vt 0.661075 0.527175
vt 0.640099 0.624203
vt 0.433047 0.648232
vt 0.859645 0.159647
vt 0.727307 0.159647
vt 0.727260 0.000000
vt 0.859644 0.000000
vt 0.760265 0.826778
vt 0.661075 0.826778
vt 0.661075 0.681162
vt 0.760265 0.681162
vt 0.330536 0.489576
vt 0.076956 0.514636
vt 0.859645 0.523360
vt 0.925838 0.661299
vt 0.661074 0.661299
vt 0.727307 0.523357
vt 0.026468 0.846807
vt 0.026468 0.714546
vt 0.000000 0.648421
vt 0.000000 0.860038
vt 0.155854 0.245791
vt 0.137664 0.161705
vt 0.330536 0.121264
vt 0.284440 0.218830
vt 0.571784 0.000000
vt 0.661075 0.086752
vt 0.659648 0.222528
vt 0.537929 0.163077
vt 0.185333 0.688130
vt 0.316450 0.648421
vt 0.316450 0.833754
vt 0.185333 0.794044
vt 0.407449 0.133797
vt 0.486187 0.402421
vt 0.355707 0.373140
vt 0.628093 0.661463
vt 0.654575 0.648233
vt 0.654575 0.859847
vt 0.628093 0.793723
vt 0.102684 0.000000
vt 0.309548 0.024244
vt 0.000000 0.158889
vt 0.614903 0.429529
vt 0.843378 0.661299
vt 0.843378 0.846632
vt 0.859645 0.404328
vt 0.727307 0.404328
vt 0.025185 0.275311
vt 0.158851 0.846807
vt 0.185333 0.860038
vt 0.158851 0.714546
vt 0.185333 0.648421
vt 0.925838 0.019853
vt 0.991651 0.000000
vt 0.991651 0.066191
vt 0.925838 0.066191
vt 0.093832 0.860038
vt 0.160003 0.860069
vt 0.160003 0.926247
vt 0.093832 0.926216
vt 0.528720 0.979187
vt 0.462692 0.979187
vt 0.462692 0.912996
vt 0.528720 0.932849
vt 0.925838 0.264641
vt 0.925838 0.198511
vt 0.972176 0.198511
vt 0.972176 0.264641
vt 0.330536 0.912996
vt 0.396665 0.912996
vt 0.396665 0.979187
vt 0.330536 0.979187
vt 0.294230 0.264110
vt 0.229939 0.277590
vt 0.243931 0.342272
vt 0.308222 0.328792
vt 0.574316 0.306005
vt 0.638671 0.319559
vt 0.560332 0.370693
vt 0.624687 0.384246
vn 1.0000 0.0000 -0.0000
vn 0.0000 0.0000 1.0000
vn -1.0000 -0.0000 0.0000
vn 0.0000 -1.0000 0.0000
vn 0.0000 1.0000 0.0000
vn 0.3826 0.9239 0.0000
vn 0.0000 0.2095 0.9778
vn -0.0000 0.2096 -0.9778
vn 0.4639 0.2796 -0.8406
vn -0.9778 0.2095 0.0000
vn 0.4639 0.2795 0.8406
vn 0.4498 -0.8931 0.0000
vn -0.9487 0.3162 0.0000
vn 0.3418 0.3374 -0.8771
vn 0.8480 0.5300 0.0000
vn 0.0000 0.2874 0.9578
vn 0.6247 -0.7809 0.0000
vn 0.0000 -0.4472 0.8944
vn 0.3368 -0.4213 -0.8421
vn -0.7071 -0.7071 -0.0000
vn 0.0000 1.0000 0.0001
vn 0.0000 0.2873 -0.9578
vn 0.3418 0.3373 0.8771
vn 0.1961 0.9806 0.0000
vn 0.3369 -0.4211 0.8421
vn 0.0000 1.0000 -0.0001
vn 0.0000 -0.4474 -0.8943
vn 0.6097 0.7926 0.0000
vn 0.0004 1.0000 0.0000
vn 0.0000 0.0000 -1.0000
vn 0.0000 0.2874 -0.9578
vn -0.0000 0.2873 0.9578
vn 0.0001 0.2873 0.9578
usemtl Material
s off
f 1/1/1 2/2/1 4/3/1 3/4/1
f 3/5/2 4/6/2 8/7/2 7/8/2
f 7/9/3 8/10/3 6/11/3 5/12/3
f 3/13/4 7/14/4 5/15/4 1/16/4
f 8/17/5 4/18/5 2/19/5 6/20/5
f 14/21/6 17/22/6 16/23/6
f 9/24/7 13/25/7 14/26/7 10/27/7
f 12/28/5 10/29/5 14/21/5 16/23/5
f 15/30/8 11/31/8 12/32/8 16/33/8
f 17/34/9 15/30/9 16/33/9
f 9/35/10 10/36/10 12/37/10 11/38/10
f 17/39/11 14/40/11 13/41/11
f 17/42/12 13/43/12 15/44/12
f 22/45/13 18/46/13 19/47/13 23/48/13
f 28/49/14 26/50/14 21/51/14 24/52/14
f 24/53/15 21/54/15 20/55/15 25/56/15
f 34/57/16 33/58/16 18/59/16 22/60/16
f 27/61/17 29/62/17 24/63/17 25/64/17
f 35/65/5 19/66/5 18/67/5 33/68/5
f 22/60/18 36/69/18 34/57/18
f 24/52/19 29/70/19 28/49/19
f 36/71/20 22/72/20 23/73/20 32/74/20
f 11/75/21 15/76/21 26/77/21 43/78/21
f 40/79/22 37/80/22 35/81/22 43/82/22
f 25/83/23 20/84/23 30/85/23 31/86/23
f 21/87/24 26/88/24 30/89/24 20/90/24
f 27/91/25 25/83/25 31/86/25
f 27/91/18 31/86/18 41/92/18 42/93/18
f 9/94/26 39/95/26 30/96/26 13/97/26
f 23/98/22 19/99/22 35/81/22 37/80/22
f 32/100/27 23/98/27 37/80/27
f 41/92/16 39/101/16 33/58/16 34/57/16
f 39/102/28 43/103/28 35/65/28 33/68/28
f 42/93/18 41/92/18 34/57/18 36/69/18
f 42/104/4 36/71/4 32/74/4 38/105/4
f 38/106/27 32/100/27 37/80/27 40/79/27
f 38/106/27 40/79/27 28/49/27 29/70/27
f 38/105/4 29/62/4 27/61/4 42/104/4
f 9/107/29 11/75/29 43/78/29 39/108/29
f 13/109/5 30/110/5 26/77/5 15/76/5
f 44/111/3 45/112/3 47/113/3 46/114/3
f 46/115/30 47/116/30 51/117/30 50/118/30
f 50/119/1 51/120/1 49/121/1 48/122/1
f 46/123/4 50/124/4 48/125/4 44/126/4
f 51/127/5 47/128/5 45/129/5 49/130/5
f 43/82/22 45/131/22 44/132/22 40/79/22
f 28/49/22 48/133/22 49/134/22 26/50/22
f 28/49/31 40/79/31 44/132/31 48/133/31
f 1/135/32 31/86/32 30/85/32 2/136/32
f 5/137/33 6/138/33 39/101/33 41/92/33
f 5/137/16 41/92/16 31/86/16 1/135/16
g Booster
v -2.503553 -0.620000 -0.625000
v -2.150000 -0.973553 -0.625000
v -2.503553 -0.620000 -0.125000
v -2.150000 -0.973553 -0.125000
v -2.150000 -0.266447 -0.625000
v -1.796447 -0.620000 -0.625000
v -2.150000 -0.266447 -0.125000
v -1.796447 -0.620000 -0.125000
v -2.503553 -0.620000 -0.375000
v -2.150000 -0.973553 -0.375000
v -2.326777 -0.796777 -0.625000
v -2.326777 -0.796777 -0.125000
v -2.238348 -0.708348 -0.375000
v -2.503553 -0.620000 0.125000
v -2.150000 -0.973553 0.125000
v -2.503553 -0.620000 0.625000
v -2.150000 -0.973553 0.625000
v -2.150000 -0.266447 0.125000
v -1.796447 -0.620000 0.125000
v -2.150000 -0.266447 0.625000
v -1.796447 -0.620000 0.625000
v -2.503553 -0.620000 0.375000
v -2.150000 -0.973553 0.375000
v -2.326777 -0.796777 0.125000
v -2.326777 -0.796777 0.625000
v -2.238348 -0.708348 0.375000
vt 0.879763 0.120271
vt 0.999136 0.126291
vt 0.999136 0.250861
vt 0.874568 0.250001
vt 0.250000 0.500000
vt 0.000000 0.500000
vt 0.000000 0.250000
vt 0.250000 0.250000
vt 0.250000 0.000000
vt 0.500000 0.000000
vt 0.500000 0.250000
vt 0.250000 0.250000
vt 0.500000 0.250000
vt 0.500000 0.500000
vt 0.250000 0.500000
vt 0.250000 0.750000
vt 0.000000 0.750000
vt 0.000000 0.500000
vt 0.874568 0.000860
vt 0.999136 0.001720
vt 0.750000 0.000000
vt 0.750000 0.124571
vt 0.250000 0.000000
vt 0.000000 0.250000
vt 0.000000 0.000000
vt 0.750000 0.249142
vt 0.869373 0.371133
vt 0.874568 0.251721
vt 0.999136 0.250861
vt 0.999136 0.375432
vt 0.500000 0.750000
vt 0.250000 0.750000
vt 0.250000 0.500000
vt 0.500000 0.500000
vt 0.500000 0.250000
vt 0.750000 0.250000
vt 0.750000 0.500000
vt 0.500000 0.500000
vt 0.500000 0.250000
vt 0.500000 0.000000
vt 0.750000 0.000000
vt 0.750000 0.250000
vt 0.250000 1.000000
vt 0.000000 1.000000
vt 0.000000 0.750000
vt 0.250000 0.750000
vt 0.750000 0.377152
vt 0.750000 0.252581
vt 0.750000 0.501723
vt 0.874568 0.500863
vt 0.750000 0.750000
vt 0.500000 0.750000
vt 0.500000 0.500000
vt 0.750000 0.500000
vt 0.999136 0.500003
vn -0.8334 -0.4999 -0.2358
vn 0.7071 0.7071 -0.0000
vn -0.0000 0.0000 -1.0000
vn 0.0000 0.0000 1.0000
vn -0.7071 0.7071 0.0000
vn -0.8334 -0.4999 0.2358
vn -0.4999 -0.8334 0.2358
vn 0.7071 -0.7071 -0.0000
vn -0.4999 -0.8334 -0.2358
usemtl Material.02
s off
f 64/139/34 61/140/34 55/141/34 63/142/34
f 59/143/35 57/144/35 56/145/35 58/146/35
f 52/147/36 56/148/36 57/149/36 53/150/36
f 59/143/37 58/146/37 54/151/37 55/152/37
f 58/153/38 56/154/38 52/155/38 54/156/38
f 62/157/39 53/158/39 61/140/39 64/139/39
f 52/159/40 62/157/40 64/139/40 60/160/40
f 55/161/41 53/150/41 57/162/41 59/163/41
f 60/160/42 64/139/42 63/142/42 54/164/42
f 77/165/34 74/166/34 68/167/34 76/168/34
f 72/169/35 70/170/35 69/171/35 71/172/35
f 65/173/36 69/174/36 70/175/36 66/176/36
f 72/177/37 71/178/37 67/179/37 68/180/37
f 71/181/38 69/182/38 65/183/38 67/184/38
f 75/185/39 66/186/39 74/166/39 77/165/39
f 65/187/40 75/185/40 77/165/40 73/188/40
f 68/189/41 66/190/41 70/191/41 72/192/41
f 73/188/42 77/165/42 76/168/42 67/193/42
