# Blender v2.92.0 OBJ File: ''
# www.blender.org
mtllib SkyWall.mtl
o SkyWall_SkyWall_SkyWall_立方体
v -33.500000 -1.000041 50.000000
v -33.500000 -0.999959 -50.000000
v -33.500000 19.000038 -49.999985
v -33.500000 18.999962 50.000015
v 106.500000 -0.999959 -50.000000
v 106.500000 19.000038 -49.999985
v 106.500000 -1.000041 50.000000
v 106.500000 18.999962 50.000015
vt 1.000000 0.500000
vt 0.500000 0.500000
vt 0.500000 1.000000
vt 1.000000 1.000000
vt 0.500000 0.000000
vt 0.000000 0.000000
vt 0.000000 0.500000
vt 0.500000 0.500000
vt 0.500000 0.500000
vt 0.000000 0.500000
vt 0.000000 1.000000
vt 0.500000 1.000000
vt 1.000000 0.000000
vt 0.500000 0.000000
vt 0.500000 0.500000
vt 1.000000 0.500000
vn 1.0000 0.0000 0.0000
vn 0.0000 -0.0000 1.0000
vn -1.0000 0.0000 0.0000
vn 0.0000 0.0000 -1.0000
usemtl Material.001
s 1
f 1/1/1 2/2/1 3/3/1 4/4/1
f 2/5/2 5/6/2 6/7/2 3/8/2
f 5/9/3 7/10/3 8/11/3 6/12/3
f 7/13/4 1/14/4 4/15/4 8/16/4
